<svg version="1.1" id="Layer_1" xmlns="http://www.w3.org/2000/svg" xmlns:xlink="http://www.w3.org/1999/xlink" x="0px" y="0px"
	 width="100%" viewBox="0 0 191 191" enable-background="new 0 0 191 191" xml:space="preserve">
<path fill="#FFFEFF" opacity="1.000000" stroke="none" 
	d="
M192.000000,133.000000 
	C192.000000,152.654907 192.000000,172.309814 192.000000,191.982361 
	C128.383163,191.982361 64.766319,191.982361 1.074737,191.982361 
	C1.074737,128.421295 1.074737,64.842484 1.074737,1.131836 
	C64.666504,1.131836 128.333206,1.131836 191.999954,1.126834 
	C192.000000,34.102116 192.000000,67.082397 191.588547,100.481102 
	C187.709274,100.581360 184.241455,100.263199 180.958374,99.603004 
	C180.956009,97.186119 180.768921,95.111267 180.499283,92.735550 
	C178.301788,90.576660 176.186844,88.718620 173.931732,86.564484 
	C172.421265,84.879272 171.050980,83.490143 169.585876,81.792984 
	C167.071686,79.529518 164.652313,77.574081 162.093414,75.332008 
	C159.955429,73.722786 157.956955,72.400200 155.738632,70.809723 
	C152.731720,69.246857 149.944641,67.951881 146.885498,66.429825 
	C131.630707,60.755585 116.696930,60.088814 101.477005,66.741226 
	C98.049606,68.534363 94.982430,70.247261 91.608368,72.069458 
	C89.480629,73.688904 87.659775,75.199043 85.535393,76.829636 
	C83.728432,78.438126 82.224998,79.926170 80.422363,81.591187 
	C79.029976,84.195801 77.936806,86.623444 76.851242,89.422440 
	C77.319931,91.199478 77.781013,92.605141 78.221649,94.425819 
	C77.846512,97.225571 77.491844,99.610306 76.932617,102.239761 
	C75.807205,103.626678 74.886337,104.768875 73.620384,106.083908 
	C68.340424,109.772743 63.195175,108.106422 57.997116,106.570404 
	C57.024940,105.156868 56.123199,104.047035 55.108009,102.538612 
	C54.647022,98.756874 54.299484,95.373734 54.162033,91.734093 
	C55.268524,89.697601 56.164928,87.917595 57.441780,86.078552 
	C60.503857,85.256828 63.289345,84.735855 65.829651,83.644295 
	C67.453812,82.946396 68.715607,81.405205 70.448837,80.152855 
	C71.566017,79.139595 72.374214,78.215561 73.453796,77.121460 
	C74.857361,75.703476 75.989532,74.455559 77.418869,73.061951 
	C79.140083,71.543266 80.564133,70.170280 82.322159,68.753448 
	C85.863602,66.511902 89.071075,64.314201 92.623459,62.065083 
	C95.646545,60.861736 98.324730,59.709797 101.347054,58.476944 
	C108.191711,57.264530 114.723816,56.283699 121.177979,54.930969 
	C123.948151,54.350361 126.556381,52.997089 129.238998,51.614403 
	C128.538574,49.410713 127.837349,47.587490 127.099655,45.422642 
	C126.591202,44.056332 126.119202,43.031643 125.597824,41.691120 
	C124.612877,39.917202 123.677322,38.459126 122.652008,36.701344 
	C121.365761,34.952339 120.169266,33.503036 118.866188,31.743710 
	C117.184219,29.926929 115.608833,28.420172 113.895340,26.621889 
	C112.191086,24.835838 110.624947,23.341314 108.926819,21.567745 
	C107.585220,20.170780 106.375603,19.052858 105.007103,17.632135 
	C98.076469,9.690665 98.076080,9.690317 91.067947,17.479975 
	C90.962044,17.597681 90.911697,17.765364 90.549988,18.055229 
	C88.814423,19.750294 87.364296,21.299850 85.622993,22.997536 
	C83.859558,24.714050 82.387291,26.282438 80.622650,28.001068 
	C78.833076,29.743586 77.335869,31.335859 75.555954,33.067894 
	C74.126343,34.450851 72.979454,35.694046 71.545197,37.081047 
	C69.783630,38.795719 68.309418,40.366585 66.547371,42.081429 
	C64.781776,43.798462 63.304012,45.371517 61.549587,47.079617 
	C60.142464,48.407234 59.012005,49.599804 57.600395,50.942680 
	C56.171879,52.327023 55.024509,53.561058 53.592239,54.953709 
	C51.833130,56.672382 50.358921,58.232445 48.592331,59.952690 
	C46.461262,62.039623 44.622574,63.966370 42.501678,66.042084 
	C40.740433,67.758934 39.261391,69.326813 37.499054,71.041733 
	C35.736031,72.756706 34.256302,74.324638 32.491127,76.041748 
	C30.390446,78.094749 28.575207,79.998558 26.478228,82.047310 
	C24.760307,83.721764 23.324129,85.251274 21.594185,86.936989 
	C19.496059,88.987358 17.691698,90.881523 15.564375,92.963539 
	C11.609722,98.073700 16.098215,99.890320 18.907339,102.687057 
	C20.616610,104.447937 22.196720,105.920418 23.902641,107.678909 
	C25.295534,109.071556 26.562618,110.178192 27.942757,111.561150 
	C28.988163,112.575226 29.920511,113.312988 31.013695,114.338837 
	C32.709610,115.781929 34.244694,116.936920 35.969421,118.375916 
	C38.242123,119.893837 40.325180,121.127762 42.665657,122.609756 
	C45.948406,124.163284 48.973743,125.468727 52.330551,126.961273 
	C65.928841,131.544632 79.117783,131.940048 92.557083,126.293106 
	C95.743752,124.863159 98.564140,123.519073 101.682693,122.115692 
	C102.971535,121.364120 103.962219,120.671844 105.264992,119.890137 
	C106.731476,118.872482 107.885887,117.944267 109.337845,116.896835 
	C110.731339,115.793907 111.827286,114.810204 113.218437,113.714951 
	C114.727028,112.167915 115.940414,110.732422 117.453636,109.100410 
	C118.217995,106.591942 118.682518,104.279999 119.101181,101.566429 
	C118.675522,98.777367 118.295708,96.389923 118.068008,93.702026 
	C118.531586,92.339951 118.843040,91.278328 119.406052,90.012138 
	C121.130836,88.272362 122.604073,86.737152 124.475098,85.111893 
	C128.585861,84.988457 132.298813,84.955055 136.217178,85.145920 
	C137.445358,85.976700 138.468124,86.583214 139.644257,87.498093 
	C140.744690,89.562469 141.691772,91.318474 142.683502,93.482925 
	C142.422501,96.573753 142.116882,99.256134 141.583130,102.158310 
	C140.242401,103.690338 139.129807,105.002563 137.677155,106.431595 
	C135.488937,107.111702 133.550323,107.480759 131.815979,108.288406 
	C129.740601,109.254883 127.839752,110.596107 125.585167,111.924957 
	C124.410515,113.190987 123.514000,114.307076 122.355865,115.621124 
	C120.743927,117.220352 119.393600,118.621620 117.753082,120.148682 
	C116.267815,121.447136 115.072746,122.619781 113.555984,123.899048 
	C111.084930,125.554962 108.935577,127.104263 106.436440,128.744705 
	C102.987900,130.441360 99.889145,132.046844 96.402878,133.729614 
	C89.344849,135.249741 82.674347,136.692566 75.604767,138.093460 
	C74.136795,138.070908 73.067879,138.090302 71.625107,138.024918 
	C70.076096,138.243561 68.900955,138.546997 67.468262,139.103668 
	C67.431183,140.920090 67.651649,142.483276 67.927292,144.387299 
	C68.860687,146.330917 69.738914,147.933716 70.705490,149.810150 
	C71.171524,150.731125 71.549217,151.378448 71.980301,152.356522 
	C73.024078,154.123398 74.014465,155.559509 75.101738,157.309570 
	C76.451675,159.111359 77.704742,160.599213 79.075951,162.355545 
	C80.015930,163.454712 80.837776,164.285400 81.797501,165.409821 
	C83.136833,166.846924 84.338280,167.990311 85.701752,169.437927 
	C87.517967,171.261597 89.172150,172.781021 91.002274,174.576263 
	C98.864723,182.261719 98.864723,182.261719 105.293808,174.826675 
	C107.267181,172.846970 108.937988,171.001389 110.883026,169.060303 
	C111.791992,168.012939 112.426712,167.061111 113.389236,166.040344 
	C115.139618,164.631134 116.562202,163.290863 118.276306,161.827042 
	C119.972939,160.422211 121.378067,159.140915 123.105553,158.017853 
	C126.309746,161.990372 129.395157,165.671692 132.003372,169.664719 
	C133.807053,172.426025 135.575058,172.110565 137.733368,170.559586 
	C141.763031,167.663803 145.823288,164.802032 149.714020,161.727676 
	C150.639053,160.996735 150.945007,159.482315 151.535706,158.328247 
	C150.122787,158.274780 148.379059,157.662262 147.356018,158.267654 
	C143.563965,160.511627 140.009460,163.157059 136.139847,165.806290 
	C132.890823,161.661957 129.852081,157.785889 126.964973,153.619751 
	C128.421387,151.891357 129.726181,150.453033 131.313721,148.887222 
	C132.531738,147.715027 133.467010,146.670319 134.610809,145.369141 
	C135.884903,144.085312 136.950470,143.057953 138.309799,141.893127 
	C140.060150,140.459839 141.516739,139.164017 142.984100,138.251740 
	C145.500443,142.427551 147.614639,146.569626 150.611740,149.922516 
	C154.265533,154.010010 160.794983,154.069229 166.219727,150.887955 
	C172.183563,147.390488 175.503204,141.102753 174.483185,135.866837 
	C172.936249,127.926277 167.962952,123.061340 160.977676,119.689072 
	C161.671204,118.604141 162.234741,117.796257 162.973465,116.715210 
	C164.102875,115.634911 165.057083,114.827774 166.307098,113.887924 
	C168.054398,112.442284 169.505905,111.129349 170.969849,110.284698 
	C171.049026,127.108147 176.618713,133.003586 192.000000,133.000000 
z"/>
<path fill="#FFFEFF" opacity="1.000000" stroke="none" 
	d="
M192.000000,106.000000 
	C192.000000,113.020950 192.000000,120.041893 191.556320,127.530418 
	C184.209915,129.095795 179.145096,126.274895 177.150253,119.815475 
	C176.145660,116.562500 176.283844,112.132317 177.753433,109.143074 
	C179.697449,105.188797 183.947311,103.908623 188.553024,105.668289 
	C189.592529,106.065445 190.845367,105.904198 192.000000,106.000000 
z"/>
<path fill="#F1F1F1" opacity="1.000000" stroke="none" 
	d="
M192.000000,105.583336 
	C190.845367,105.904198 189.592529,106.065445 188.553024,105.668289 
	C183.947311,103.908623 179.697449,105.188797 177.753433,109.143074 
	C176.283844,112.132317 176.145660,116.562500 177.150253,119.815475 
	C179.145096,126.274895 184.209915,129.095795 191.556320,127.998993 
	C192.000000,129.388885 192.000000,130.777786 192.000000,132.583344 
	C176.618713,133.003586 171.049026,127.108147 171.058472,110.039658 
	C171.354889,108.878273 171.575119,108.430206 171.981537,107.706604 
	C173.455124,106.290459 174.742554,105.149857 176.311142,103.883751 
	C177.393631,102.839180 178.194946,101.920113 179.242432,100.908997 
	C179.916931,100.526314 180.345276,100.235672 180.773636,99.945030 
	C184.241455,100.263199 187.709274,100.581360 191.588547,100.949760 
	C192.000000,102.388893 192.000000,103.777779 192.000000,105.583336 
z"/>
<path fill="#EC9676" opacity="1.000000" stroke="none" 
	d="
M125.647209,42.006958 
	C126.119202,43.031643 126.591202,44.056332 126.899597,45.792786 
	C124.917198,47.002781 123.101105,47.921906 121.279144,47.933712 
	C104.226906,48.044201 87.173409,48.046131 70.120972,47.951996 
	C67.354294,47.936726 64.591072,47.296131 61.826248,46.944572 
	C63.304012,45.371517 64.781776,43.798462 67.029114,42.101418 
	C87.081528,41.987278 106.364365,41.997120 125.647209,42.006958 
z"/>
<path fill="#D435C8" opacity="1.000000" stroke="none" 
	d="
M77.137177,101.995049 
	C77.491844,99.610306 77.846512,97.225571 78.672699,94.423279 
	C92.068115,94.004646 104.992004,94.003563 117.915901,94.002480 
	C118.295708,96.389923 118.675522,98.777367 118.621269,101.576355 
	C104.503860,101.990280 90.820511,101.992668 77.137177,101.995049 
z"/>
<path fill="#F1F1F1" opacity="1.000000" stroke="none" 
	d="
M160.847672,119.966133 
	C167.962952,123.061340 172.936249,127.926277 174.483185,135.866837 
	C175.503204,141.102753 172.183563,147.390488 166.219727,150.887955 
	C160.794983,154.069229 154.265533,154.010010 150.611740,149.922516 
	C147.614639,146.569626 145.500443,142.427551 143.082138,138.000458 
	C143.460190,136.914276 143.750992,136.462906 144.316956,135.885376 
	C145.370911,135.119431 146.149689,134.479645 146.951752,134.243271 
	C147.453354,139.971909 150.264465,144.226608 154.691757,146.526215 
	C157.127350,147.791290 160.969803,147.352509 163.842178,146.521408 
	C167.557205,145.446457 169.816345,142.175797 169.776108,138.228012 
	C169.704041,131.157013 163.237473,125.208519 155.963165,124.646378 
	C156.749771,123.587341 157.392609,122.800659 158.303558,121.894272 
	C159.330338,121.171745 160.089005,120.568939 160.847672,119.966133 
z"/>
<path fill="#E165A0" opacity="1.000000" stroke="none" 
	d="
M147.157578,66.656906 
	C149.944641,67.951881 152.731720,69.246857 155.494324,71.100998 
	C150.240616,72.106674 145.001892,72.467102 139.786987,73.043304 
	C137.784363,73.264587 135.836075,73.977783 133.414429,74.377853 
	C128.011856,74.591736 123.057869,74.894600 117.910164,74.834610 
	C115.714798,73.981171 113.734467,73.203018 111.707611,73.052895 
	C105.119324,72.564926 98.514015,72.306778 91.915260,71.960159 
	C94.982430,70.247261 98.049606,68.534363 101.747849,67.096848 
	C103.165474,67.577850 103.951492,67.960304 104.738678,67.962708 
	C117.711372,68.002289 130.684464,68.028313 143.656616,67.938210 
	C144.826523,67.930092 145.990723,67.103432 147.157578,66.656906 
z"/>
<path fill="#BE51CB" opacity="1.000000" stroke="none" 
	d="
M117.153793,109.296921 
	C115.940414,110.732422 114.727028,112.167915 112.907318,113.453125 
	C97.429161,113.207893 82.557327,113.084328 67.685493,113.085625 
	C66.743423,113.085709 65.801437,114.057518 64.459686,114.513382 
	C60.326923,112.646790 56.593895,110.844109 53.225758,108.999344 
	C55.082943,108.262886 56.575245,107.568497 58.067547,106.874107 
	C63.195175,108.106422 68.340424,109.772743 73.713928,106.487259 
	C75.785385,107.145271 77.414680,107.926849 79.051582,107.943108 
	C90.092346,108.052795 101.135254,107.946442 112.175972,108.058167 
	C113.839256,108.074997 115.494713,108.864716 117.153793,109.296921 
z"/>
<path fill="#DE54B0" opacity="1.000000" stroke="none" 
	d="
M136.011780,84.921646 
	C132.298813,84.955055 128.585861,84.988457 124.379272,84.698875 
	C122.255920,83.917084 120.630295,83.078438 118.995819,83.060860 
	C108.026749,82.942841 97.054878,83.070419 86.086380,82.928329 
	C84.291870,82.905083 82.509529,81.942596 80.721565,81.414215 
	C82.224998,79.926170 83.728432,78.438126 85.812637,77.174377 
	C96.378738,77.561684 106.363853,77.750549 116.349838,77.826775 
	C116.984131,77.831612 117.625099,76.961121 118.671906,76.675102 
	C121.526222,76.935616 124.055679,76.649391 126.398666,77.182571 
	C130.673538,78.155396 134.837936,79.613655 138.995956,81.213936 
	C137.966248,82.679527 136.989014,83.800583 136.011780,84.921646 
z"/>
<path fill="#8892CD" opacity="1.000000" stroke="none" 
	d="
M144.041779,136.011536 
	C143.750992,136.462906 143.460190,136.914276 143.071350,137.616913 
	C141.516739,139.164017 140.060150,140.459839 138.217010,141.494141 
	C136.171448,140.821579 134.514175,140.061630 132.853119,140.053253 
	C115.561188,139.965927 98.268257,140.050110 80.976891,139.918091 
	C79.314766,139.905411 77.661316,138.756729 76.003838,138.135406 
	C82.674347,136.692566 89.344849,135.249741 96.682678,134.083557 
	C108.797646,134.573685 120.247139,134.719742 131.691925,135.036407 
	C135.814377,135.150467 139.925491,135.674561 144.041779,136.011536 
z"/>
<path fill="#7F9ACC" opacity="1.000000" stroke="none" 
	d="
M75.604767,138.093460 
	C77.661316,138.756729 79.314766,139.905411 80.976891,139.918091 
	C98.268257,140.050110 115.561188,139.965927 132.853119,140.053253 
	C134.514175,140.061630 136.171448,140.821579 137.923248,141.631607 
	C136.950470,143.057953 135.884903,144.085312 134.332520,144.973816 
	C132.421921,144.556732 130.998550,144.038956 129.574280,144.036377 
	C109.006966,143.999115 88.439529,144.031082 67.872124,144.046463 
	C67.651649,142.483276 67.431183,140.920090 67.801666,139.250732 
	C69.594734,138.799622 70.796852,138.454666 71.998970,138.109711 
	C73.067879,138.090302 74.136795,138.070908 75.604767,138.093460 
z"/>
<path fill="#E88685" opacity="1.000000" stroke="none" 
	d="
M53.877140,54.795097 
	C55.024509,53.561058 56.171879,52.327023 57.882656,51.274456 
	C60.241112,51.637283 62.035915,51.973568 63.831249,51.976418 
	C85.633514,52.011047 107.435867,51.996582 129.238190,51.994869 
	C126.556381,52.997089 123.948151,54.350361 121.177979,54.930969 
	C114.723816,56.283699 108.191711,57.264530 101.316727,58.096657 
	C99.441353,57.198322 97.946075,56.096531 96.438644,56.079639 
	C83.948006,55.939678 71.454773,56.045841 58.963356,55.946808 
	C57.265015,55.933346 55.572403,55.196831 53.877140,54.795097 
z"/>
<path fill="#EA8C7E" opacity="1.000000" stroke="none" 
	d="
M129.238998,51.614403 
	C107.435867,51.996582 85.633514,52.011047 63.831249,51.976418 
	C62.035915,51.973568 60.241112,51.637283 58.163803,51.124153 
	C59.012005,49.599804 60.142464,48.407234 61.549587,47.079620 
	C64.591072,47.296131 67.354294,47.936726 70.120972,47.951996 
	C87.173409,48.046131 104.226906,48.044201 121.279144,47.933712 
	C123.101105,47.921906 124.917198,47.002781 126.936066,46.134415 
	C127.837349,47.587490 128.538574,49.410713 129.238998,51.614403 
z"/>
<path fill="#DB49B7" opacity="1.000000" stroke="none" 
	d="
M80.422363,81.591187 
	C82.509529,81.942596 84.291870,82.905083 86.086380,82.928329 
	C97.054878,83.070419 108.026749,82.942841 118.995819,83.060860 
	C120.630295,83.078438 122.255920,83.917084 123.981476,84.788910 
	C122.604073,86.737152 121.130836,88.272362 119.117676,89.682434 
	C117.286217,89.371170 115.994972,89.025970 114.703087,89.023560 
	C102.083328,89.000015 89.463470,89.033691 76.843636,89.051079 
	C77.936806,86.623444 79.029976,84.195801 80.422363,81.591187 
z"/>
<path fill="#EEA06D" opacity="1.000000" stroke="none" 
	d="
M125.597824,41.691120 
	C106.364365,41.997120 87.081528,41.987278 67.316940,41.957443 
	C68.309418,40.366585 69.783630,38.795719 72.027130,37.101173 
	C89.444862,36.985340 106.093315,36.993191 122.741760,37.001045 
	C123.677322,38.459126 124.612877,39.917202 125.597824,41.691120 
z"/>
<path fill="#E47294" opacity="1.000000" stroke="none" 
	d="
M92.278557,62.116493 
	C89.071075,64.314201 85.863602,66.511902 82.213837,68.375366 
	C80.252930,67.693977 78.737129,67.061378 77.215225,67.046349 
	C67.813972,66.953491 58.410557,67.064507 49.009804,66.949348 
	C46.930496,66.923882 44.858982,66.261971 42.783882,65.893112 
	C44.622574,63.966370 46.461262,62.039623 48.873825,60.284611 
	C58.493675,60.637665 67.542786,60.727249 76.584435,61.035465 
	C81.822006,61.214001 87.047585,61.744427 92.278557,62.116493 
z"/>
<path fill="#C842CB" opacity="1.000000" stroke="none" 
	d="
M117.453629,109.100403 
	C115.494713,108.864716 113.839256,108.074997 112.175972,108.058167 
	C101.135254,107.946442 90.092346,108.052795 79.051582,107.943108 
	C77.414680,107.926849 75.785385,107.145271 74.059021,106.314423 
	C74.886337,104.768875 75.807205,103.626678 76.932617,102.239761 
	C90.820511,101.992668 104.503860,101.990280 118.667114,101.977966 
	C118.682518,104.279999 118.217995,106.591942 117.453629,109.100403 
z"/>
<path fill="#77A4CC" opacity="1.000000" stroke="none" 
	d="
M67.927292,144.387299 
	C88.439529,144.031082 109.006966,143.999115 129.574280,144.036377 
	C130.998550,144.038956 132.421921,144.556732 134.123993,145.230270 
	C133.467010,146.670319 132.531738,147.715027 130.927765,148.719208 
	C129.467728,148.457809 128.676804,148.045853 127.884964,148.044098 
	C109.938950,148.004272 91.992706,147.981339 74.047081,148.071640 
	C72.901344,148.077393 71.760345,149.026337 70.617142,149.536499 
	C69.738914,147.933716 68.860687,146.330917 67.927292,144.387299 
z"/>
<path fill="#E67C8B" opacity="1.000000" stroke="none" 
	d="
M92.623459,62.065079 
	C87.047585,61.744427 81.822006,61.214001 76.584435,61.035465 
	C67.542786,60.727249 58.493675,60.637665 49.166206,60.124428 
	C50.358921,58.232445 51.833130,56.672382 53.592239,54.953709 
	C55.572403,55.196831 57.265015,55.933346 58.963356,55.946808 
	C71.454773,56.045841 83.948006,55.939678 96.438644,56.079639 
	C97.946075,56.096531 99.441353,57.198322 100.972595,58.177574 
	C98.324730,59.709797 95.646545,60.861736 92.623459,62.065079 
z"/>
<path fill="#9285CC" opacity="1.000000" stroke="none" 
	d="
M144.316956,135.885376 
	C139.925491,135.674561 135.814377,135.150467 131.691925,135.036407 
	C120.247139,134.719742 108.797646,134.573685 97.070198,134.006287 
	C99.889145,132.046844 102.987900,130.441360 106.717377,129.097824 
	C116.742714,129.573395 126.139717,129.716278 135.530930,130.031631 
	C139.959885,130.180374 144.377747,130.659988 148.765274,131.278824 
	C148.129440,132.325256 147.528961,133.082565 146.928482,133.839859 
	C146.149689,134.479645 145.370911,135.119431 144.316956,135.885376 
z"/>
<path fill="#6FAECD" opacity="1.000000" stroke="none" 
	d="
M70.705490,149.810150 
	C71.760345,149.026337 72.901344,148.077393 74.047081,148.071640 
	C91.992706,147.981339 109.938950,148.004272 127.884964,148.044098 
	C128.676804,148.045853 129.467728,148.457809 130.645020,148.846695 
	C129.726181,150.453033 128.421387,151.891357 126.757584,153.597595 
	C126.398575,153.865524 125.994385,153.759201 125.878784,153.382935 
	C124.228722,152.671112 122.695343,152.049774 121.159622,152.043961 
	C104.748924,151.981842 88.337868,152.017166 71.926903,152.025757 
	C71.549217,151.378448 71.171524,150.731125 70.705490,149.810150 
z"/>
<path fill="#A56ECC" opacity="1.000000" stroke="none" 
	d="
M101.384537,122.174988 
	C98.564140,123.519073 95.743752,124.863159 92.286697,125.931839 
	C91.363121,125.495155 91.077103,125.194504 90.789169,125.192650 
	C78.706833,125.115044 66.624161,125.028412 54.542210,125.086327 
	C53.691822,125.090408 52.846672,126.186096 51.999084,126.774185 
	C48.973743,125.468727 45.948406,124.163284 43.098289,122.400528 
	C45.212086,121.628937 47.149273,121.052490 49.089466,121.042183 
	C63.578964,120.965256 78.069572,120.936401 92.558533,121.053535 
	C95.503357,121.077339 98.442680,121.783432 101.384537,122.174988 
z"/>
<path fill="#9C78CC" opacity="1.000000" stroke="none" 
	d="
M148.800629,130.989685 
	C144.377747,130.659988 139.959885,130.180374 135.530930,130.031631 
	C126.139717,129.716278 116.742714,129.573395 107.067154,129.006668 
	C108.935577,127.104263 111.084930,125.554962 113.838867,124.230484 
	C121.214561,124.637070 127.988174,124.755043 134.756088,125.019020 
	C141.186249,125.269836 147.610443,125.673332 153.893951,126.310608 
	C152.100632,128.070923 150.450623,129.530304 148.800629,130.989685 
z"/>
<path fill="#67B8CD" opacity="1.000000" stroke="none" 
	d="
M71.980301,152.356522 
	C88.337868,152.017166 104.748924,151.981842 121.159622,152.043961 
	C122.695343,152.049774 124.228722,152.671112 125.615753,153.580505 
	C124.619606,155.096359 123.770889,156.038361 122.545776,156.809586 
	C121.704498,156.461227 121.240166,156.129990 120.774673,156.128357 
	C106.456146,156.078140 92.137474,156.042145 77.819008,156.078613 
	C76.880188,156.081009 75.942871,156.676178 75.004860,156.995621 
	C74.014465,155.559509 73.024078,154.123398 71.980301,152.356522 
z"/>
<path fill="#E4739B" opacity="1.000000" stroke="none" 
	d="
M146.885498,66.429825 
	C145.990723,67.103432 144.826523,67.930092 143.656616,67.938210 
	C130.684464,68.028313 117.711372,68.002289 104.738678,67.962708 
	C103.951492,67.960304 103.165474,67.577850 102.108078,67.016602 
	C116.696930,60.088814 131.630707,60.755585 146.885498,66.429825 
z"/>
<path fill="#E2669D" opacity="1.000000" stroke="none" 
	d="
M42.501678,66.042084 
	C44.858982,66.261971 46.930496,66.923882 49.009804,66.949348 
	C58.410557,67.064507 67.813972,66.953491 77.215225,67.046349 
	C78.737129,67.061378 80.252930,67.693977 81.879868,68.419205 
	C80.564133,70.170280 79.140083,71.543266 77.136276,72.730858 
	C65.871819,72.363564 55.185642,72.237221 44.503593,71.954834 
	C42.255409,71.895401 40.022366,71.263046 37.782349,70.894691 
	C39.261391,69.326813 40.740433,67.758934 42.501678,66.042084 
z"/>
<path fill="#F1B060" opacity="1.000000" stroke="none" 
	d="
M75.838669,32.928135 
	C77.335869,31.335859 78.833076,29.743586 80.907547,28.323116 
	C91.567055,28.656055 101.649193,28.862711 111.731789,28.887625 
	C112.497383,28.889517 113.266159,27.601725 114.033463,26.913418 
	C115.608833,28.420172 117.184219,29.926929 118.669907,32.083855 
	C117.217102,33.155773 115.857086,33.931526 114.490402,33.943459 
	C103.201180,34.042004 91.910393,34.040985 80.621025,33.951298 
	C79.024292,33.938614 77.432663,33.285061 75.838669,32.928135 
z"/>
<path fill="#D93EC0" opacity="1.000000" stroke="none" 
	d="
M76.851242,89.422440 
	C89.463470,89.033691 102.083328,89.000015 114.703087,89.023560 
	C115.994972,89.025970 117.286217,89.371170 118.866135,89.887001 
	C118.843040,91.278328 118.531586,92.339951 118.068008,93.702026 
	C104.992004,94.003563 92.068115,94.004646 78.693161,94.008270 
	C77.781013,92.605141 77.319931,91.199478 76.851242,89.422440 
z"/>
<path fill="#D535C8" opacity="1.000000" stroke="none" 
	d="
M18.778179,102.398643 
	C16.098215,99.890320 11.609722,98.073700 15.841705,93.297806 
	C25.574799,93.631721 34.707596,93.819206 43.880127,94.442429 
	C43.952408,96.919159 43.984959,98.960136 43.547760,101.001236 
	C36.627731,101.001335 30.175188,100.908249 23.728731,101.065224 
	C22.068708,101.105637 20.427843,101.932861 18.778179,102.398643 
z"/>
<path fill="#AD68CC" opacity="1.000000" stroke="none" 
	d="
M101.682693,122.115700 
	C98.442680,121.783432 95.503357,121.077339 92.558533,121.053535 
	C78.069572,120.936401 63.578964,120.965256 49.089466,121.042183 
	C47.149273,121.052490 45.212086,121.628937 42.840874,122.152451 
	C40.325180,121.127762 38.242123,119.893837 36.404053,118.346161 
	C40.307018,117.888641 43.988152,117.947166 47.615082,117.532082 
	C50.157413,117.241119 52.625786,116.303947 55.505333,115.767220 
	C62.923275,116.583801 69.963074,117.288528 77.251015,117.989182 
	C77.499161,117.985100 77.995506,117.985367 78.287750,118.285797 
	C82.336891,118.724350 86.096672,118.809525 89.849991,119.013603 
	C94.886917,119.287483 99.918839,119.653252 104.952911,119.979568 
	C103.962219,120.671844 102.971535,121.364120 101.682693,122.115700 
z"/>
<path fill="#57CCCD" opacity="1.000000" stroke="none" 
	d="
M117.984795,161.950592 
	C116.562202,163.290863 115.139618,164.631134 113.102638,165.724731 
	C102.212036,165.357391 91.935822,165.236740 81.659615,165.116089 
	C80.837776,164.285400 80.015930,163.454712 79.171997,161.952225 
	C79.803574,160.863480 80.454758,160.087479 81.111259,160.082962 
	C92.600899,160.003998 104.091568,159.980515 115.580467,160.097733 
	C116.388123,160.105972 117.183632,161.305191 117.984795,161.950592 
z"/>
<path fill="#60C2CD" opacity="1.000000" stroke="none" 
	d="
M118.276306,161.827042 
	C117.183632,161.305191 116.388123,160.105972 115.580467,160.097733 
	C104.091568,159.980515 92.600899,160.003998 81.111259,160.082962 
	C80.454758,160.087479 79.803574,160.863480 79.053864,161.683746 
	C77.704742,160.599213 76.451675,159.111359 75.101738,157.309570 
	C75.942871,156.676178 76.880188,156.081009 77.819008,156.078613 
	C92.137474,156.042145 106.456146,156.078140 120.774673,156.128357 
	C121.240166,156.129990 121.704498,156.461227 122.518814,157.030670 
	C122.868256,157.422516 122.783195,157.859634 122.783195,157.859634 
	C121.378067,159.140915 119.972939,160.422211 118.276306,161.827042 
z"/>
<path fill="#D535C8" opacity="1.000000" stroke="none" 
	d="
M180.958374,99.603004 
	C180.345276,100.235672 179.916931,100.526314 178.827469,100.854866 
	C169.488953,100.594231 160.811523,100.295677 152.103943,99.570152 
	C152.122528,97.432312 152.171280,95.721436 152.674896,94.007362 
	C162.280441,93.681572 171.431137,93.358986 180.581818,93.036407 
	C180.768921,95.111267 180.956009,97.186119 180.958374,99.603004 
z"/>
<path fill="#E05EA4" opacity="1.000000" stroke="none" 
	d="
M37.499054,71.041733 
	C40.022366,71.263046 42.255409,71.895401 44.503593,71.954834 
	C55.185642,72.237221 65.871819,72.363564 76.839111,72.876556 
	C75.989532,74.455559 74.857361,75.703476 73.196785,76.793320 
	C69.932152,76.423706 67.195915,76.212158 64.300209,75.660355 
	C63.152996,75.042343 61.987019,74.283424 61.208920,74.571648 
	C58.138397,75.709045 55.189610,77.175110 51.949211,78.146622 
	C49.288696,77.515892 46.876259,77.241211 44.460186,77.003471 
	C40.566906,76.620369 36.671234,76.261604 32.776569,75.892563 
	C34.256302,74.324638 35.736031,72.756706 37.499054,71.041733 
z"/>
<path fill="#F1F1F1" opacity="1.000000" stroke="none" 
	d="
M123.105553,158.017853 
	C122.783195,157.859634 122.868256,157.422516 122.895218,157.201447 
	C123.770889,156.038361 124.619606,155.096359 125.731354,153.956787 
	C125.994385,153.759201 126.398575,153.865524 126.605957,153.887665 
	C129.852081,157.785889 132.890823,161.661957 136.139847,165.806290 
	C140.009460,163.157059 143.563965,160.511627 147.356018,158.267654 
	C148.379059,157.662262 150.122787,158.274780 151.535706,158.328247 
	C150.945007,159.482315 150.639053,160.996735 149.714020,161.727676 
	C145.823288,164.802032 141.763031,167.663803 137.733368,170.559586 
	C135.575058,172.110565 133.807053,172.426025 132.003372,169.664719 
	C129.395157,165.671692 126.309746,161.990372 123.105553,158.017853 
z"/>
<path fill="#A07ACD" opacity="1.000000" stroke="none" 
	d="
M52.330551,126.961273 
	C52.846672,126.186096 53.691822,125.090408 54.542210,125.086327 
	C66.624161,125.028412 78.706833,125.115044 90.789169,125.192650 
	C91.077103,125.194504 91.363121,125.495155 91.920410,126.017715 
	C79.117783,131.940048 65.928841,131.544632 52.330551,126.961273 
z"/>
<path fill="#A56ECC" opacity="1.000000" stroke="none" 
	d="
M154.037262,126.009689 
	C147.610443,125.673332 141.186249,125.269836 134.756088,125.019020 
	C127.988174,124.755043 121.214561,124.637070 114.160561,124.123856 
	C115.072746,122.619781 116.267815,121.447136 118.133339,120.313538 
	C129.637619,120.568504 140.472809,120.735626 151.304138,121.040184 
	C153.555252,121.103477 155.792053,121.676086 158.035446,122.013977 
	C157.392609,122.800659 156.749771,123.587341 155.723480,124.756783 
	C154.905777,125.429596 154.471512,125.719643 154.037262,126.009689 
z"/>
<path fill="#AE65CC" opacity="1.000000" stroke="none" 
	d="
M158.303558,121.894272 
	C155.792053,121.676086 153.555252,121.103477 151.304138,121.040184 
	C140.472809,120.735626 129.637619,120.568504 118.423538,120.187744 
	C119.393600,118.621620 120.743927,117.220352 122.613205,115.989517 
	C125.919701,116.442589 128.707245,116.725227 131.805695,117.266541 
	C135.404724,116.663620 138.692886,115.802017 142.172562,115.292786 
	C144.040543,116.096657 145.706024,116.881783 147.395477,116.937286 
	C152.524765,117.105774 157.663315,116.992134 162.798264,116.988373 
	C162.234741,117.796257 161.671204,118.604141 160.977676,119.689072 
	C160.089005,120.568939 159.330338,121.171745 158.303558,121.894272 
z"/>
<path fill="#D940C1" opacity="1.000000" stroke="none" 
	d="
M180.499283,92.735550 
	C171.431137,93.358986 162.280441,93.681572 152.580872,93.631943 
	C151.648148,91.516212 151.264297,89.772690 151.356476,88.020348 
	C155.930588,88.007790 160.035461,88.148361 164.124573,87.955063 
	C167.450165,87.797852 170.756821,87.240486 174.071884,86.860580 
	C176.186844,88.718620 178.301788,90.576660 180.499283,92.735550 
z"/>
<path fill="#D93EC0" opacity="1.000000" stroke="none" 
	d="
M43.840393,94.006683 
	C34.707596,93.819206 25.574799,93.631721 16.164669,93.109970 
	C17.691698,90.881523 19.496059,88.987358 21.872272,87.270706 
	C30.023151,87.646935 37.602180,87.845650 45.128204,88.421356 
	C44.663601,90.534462 44.251999,92.270569 43.840393,94.006683 
z"/>
<path fill="#F3B958" opacity="1.000000" stroke="none" 
	d="
M113.895340,26.621891 
	C113.266159,27.601725 112.497383,28.889517 111.731789,28.887625 
	C101.649193,28.862711 91.567055,28.656055 81.199913,28.172873 
	C82.387291,26.282438 83.859558,24.714050 85.907722,23.319693 
	C93.254295,23.653896 100.024994,23.882397 106.795570,23.878439 
	C107.550369,23.877998 108.304405,22.555941 109.058800,21.846790 
	C110.624947,23.341314 112.191086,24.835838 113.895340,26.621891 
z"/>
<path fill="#DF5BA6" opacity="1.000000" stroke="none" 
	d="
M118.262962,76.497841 
	C117.625099,76.961121 116.984131,77.831612 116.349838,77.826775 
	C106.363853,77.750549 96.378738,77.561684 86.116165,77.053932 
	C87.659775,75.199043 89.480629,73.688904 91.608368,72.069458 
	C98.514015,72.306778 105.119324,72.564926 111.707611,73.052895 
	C113.734467,73.203018 115.714798,73.981171 117.953156,75.049431 
	C118.259933,75.913521 118.284294,76.203766 118.262962,76.497841 
z"/>
<path fill="#F0A867" opacity="1.000000" stroke="none" 
	d="
M75.555954,33.067894 
	C77.432663,33.285061 79.024292,33.938614 80.621025,33.951298 
	C91.910393,34.040985 103.201180,34.042004 114.490402,33.943459 
	C115.857086,33.931526 117.217102,33.155773 118.776489,32.393883 
	C120.169266,33.503036 121.365761,34.952339 122.652008,36.701344 
	C106.093315,36.993191 89.444862,36.985340 72.314491,36.957367 
	C72.979454,35.694046 74.126343,34.450851 75.555954,33.067894 
z"/>
<path fill="#B55ACB" opacity="1.000000" stroke="none" 
	d="
M77.995506,117.985367 
	C77.995506,117.985367 77.499161,117.985100 77.316940,117.571472 
	C75.938568,116.451050 74.806999,115.316841 73.533142,115.124390 
	C70.679482,114.693268 67.755035,114.730667 64.859421,114.577271 
	C65.801437,114.057518 66.743423,113.085709 67.685493,113.085625 
	C82.557327,113.084328 97.429161,113.207893 112.612122,113.564667 
	C111.827286,114.810204 110.731339,115.793907 108.905777,116.890228 
	C100.269310,116.669708 92.363892,116.179848 84.454628,116.106644 
	C82.307564,116.086769 80.148865,117.324715 77.995506,117.985367 
z"/>
<path fill="#DB49B7" opacity="1.000000" stroke="none" 
	d="
M173.931732,86.564491 
	C170.756821,87.240486 167.450165,87.797852 164.124573,87.955063 
	C160.035461,88.148361 155.930588,88.007790 151.110901,87.819641 
	C149.915573,86.445053 149.441879,85.262360 149.160614,83.725998 
	C150.853226,82.914711 152.344498,82.101707 153.855225,82.063789 
	C159.126740,81.931473 164.404984,82.067169 169.680679,82.101013 
	C171.050980,83.490143 172.421265,84.879272 173.931732,86.564491 
z"/>
<path fill="#DB49B7" opacity="1.000000" stroke="none" 
	d="
M45.181206,88.044373 
	C37.602180,87.845650 30.023151,87.646935 22.166037,87.114502 
	C23.324129,85.251274 24.760307,83.721764 26.964806,82.077591 
	C32.648006,81.975647 37.571705,81.827263 42.472610,82.095451 
	C44.021465,82.180214 45.509369,83.378922 46.956985,84.380707 
	C46.319607,85.810516 45.750404,86.927444 45.181206,88.044373 
z"/>
<path fill="#CC40CB" opacity="1.000000" stroke="none" 
	d="
M18.907339,102.687057 
	C20.427843,101.932861 22.068708,101.105637 23.728731,101.065224 
	C30.175188,100.908249 36.627731,101.001335 43.738461,101.279205 
	C44.858215,103.034401 45.317520,104.511742 45.322239,105.992294 
	C39.795876,105.997314 34.719280,105.872292 29.654732,106.064514 
	C27.681467,106.139412 25.735325,106.928902 23.776829,107.392891 
	C22.196720,105.920418 20.616610,104.447937 18.907339,102.687057 
z"/>
<path fill="#50D7CE" opacity="1.000000" stroke="none" 
	d="
M81.797501,165.409821 
	C91.935822,165.236740 102.212036,165.357391 112.774841,165.793671 
	C112.426712,167.061111 111.791992,168.012939 110.365250,169.017960 
	C101.562065,169.091995 93.550896,169.112839 85.539726,169.133698 
	C84.338280,167.990311 83.136833,166.846924 81.797501,165.409821 
z"/>
<path fill="#C04ECB" opacity="1.000000" stroke="none" 
	d="
M171.795364,107.982147 
	C171.575119,108.430206 171.354889,108.878273 171.046036,109.571381 
	C169.505905,111.129349 168.054398,112.442284 166.215485,113.489777 
	C164.334915,112.816315 162.851013,112.101471 161.346924,112.056061 
	C156.201706,111.900681 151.049393,111.980476 146.023712,111.671021 
	C147.284332,109.871788 148.421005,108.372108 150.052643,106.908768 
	C157.630188,107.290787 164.712784,107.636467 171.795364,107.982147 
z"/>
<path fill="#DF58AF" opacity="1.000000" stroke="none" 
	d="
M169.585876,81.792984 
	C164.404984,82.067169 159.126740,81.931473 153.855225,82.063789 
	C152.344498,82.101707 150.853226,82.914711 148.891174,83.542473 
	C146.953583,82.124031 145.477844,80.535446 144.097290,78.554520 
	C148.097275,77.774590 152.012787,77.469933 155.902573,76.966446 
	C158.035110,76.690422 160.124222,76.078888 162.232925,75.618645 
	C164.652313,77.574081 167.071686,79.529518 169.585876,81.792984 
z"/>
<path fill="#DE54AD" opacity="1.000000" stroke="none" 
	d="
M47.025169,84.067818 
	C45.509369,83.378922 44.021465,82.180214 42.472610,82.095451 
	C37.571705,81.827263 32.648006,81.975647 27.246548,81.932648 
	C28.575207,79.998558 30.390446,78.094749 32.491127,76.041748 
	C36.671234,76.261604 40.566906,76.620369 44.460186,77.003471 
	C46.876259,77.241211 49.288696,77.515892 51.726719,78.355484 
	C50.175507,80.647263 48.600338,82.357544 47.025169,84.067818 
z"/>
<path fill="#F6C350" opacity="1.000000" stroke="none" 
	d="
M108.926819,21.567747 
	C108.304405,22.555941 107.550369,23.877998 106.795570,23.878439 
	C100.024994,23.882397 93.254295,23.653896 86.198898,23.171566 
	C87.364296,21.299850 88.814423,19.750294 90.940125,18.227976 
	C96.132462,18.148457 100.649231,18.041695 105.165993,17.934935 
	C106.375603,19.052858 107.585220,20.170780 108.926819,21.567747 
z"/>
<path fill="#B658CB" opacity="1.000000" stroke="none" 
	d="
M145.899780,111.970581 
	C151.049393,111.980476 156.201706,111.900681 161.346924,112.056061 
	C162.851013,112.101471 164.334915,112.816315 165.919678,113.622482 
	C165.057083,114.827774 164.102875,115.634911 162.973465,116.715210 
	C157.663315,116.992134 152.524765,117.105774 147.395477,116.937286 
	C145.706024,116.881783 144.040543,116.096657 142.317108,115.015167 
	C143.480026,113.580307 144.689911,112.775444 145.899780,111.970581 
z"/>
<path fill="#E060A7" opacity="1.000000" stroke="none" 
	d="
M162.093414,75.332008 
	C160.124222,76.078888 158.035110,76.690422 155.902573,76.966446 
	C152.012787,77.469933 148.097275,77.774590 143.764465,78.459999 
	C140.178635,77.327484 137.020828,75.897156 133.863037,74.466827 
	C135.836075,73.977783 137.784363,73.264587 139.786987,73.043304 
	C145.001892,72.467102 150.240616,72.106674 155.714172,71.368881 
	C157.956955,72.400200 159.955429,73.722786 162.093414,75.332008 
z"/>
<path fill="#B55DCC" opacity="1.000000" stroke="none" 
	d="
M55.127190,115.655365 
	C52.625786,116.303947 50.157413,117.241119 47.615082,117.532082 
	C43.988152,117.947166 40.307018,117.888641 36.214405,118.062157 
	C34.244694,116.936920 32.709610,115.781929 31.440510,114.275803 
	C38.074013,113.475029 44.441536,113.025368 51.071671,112.673477 
	C52.598587,113.732620 53.862888,114.693993 55.127190,115.655365 
z"/>
<path fill="#48E1CE" opacity="1.000000" stroke="none" 
	d="
M85.701752,169.437927 
	C93.550896,169.112839 101.562065,169.091995 110.091019,169.113495 
	C108.937988,171.001389 107.267181,172.846970 105.202011,174.435211 
	C100.147209,174.218750 95.486763,174.259598 90.826324,174.300446 
	C89.172150,172.781021 87.517967,171.261597 85.701752,169.437927 
z"/>
<path fill="#C34CCC" opacity="1.000000" stroke="none" 
	d="
M23.902641,107.678909 
	C25.735325,106.928902 27.681467,106.139412 29.654732,106.064514 
	C34.719280,105.872292 39.795876,105.997314 45.426140,106.302002 
	C46.632717,107.410278 47.280811,108.212067 47.518158,109.066391 
	C43.014626,109.412521 38.912766,109.617287 34.832527,110.033844 
	C32.480194,110.273994 30.162811,110.856445 27.829700,111.284821 
	C26.562618,110.178192 25.295534,109.071556 23.902641,107.678909 
z"/>
<path fill="#AE65CC" opacity="1.000000" stroke="none" 
	d="
M78.287750,118.285789 
	C80.148865,117.324715 82.307564,116.086769 84.454628,116.106644 
	C92.363892,116.179848 100.269310,116.669708 108.608231,117.009453 
	C107.885887,117.944267 106.731476,118.872482 105.264992,119.890137 
	C99.918839,119.653252 94.886917,119.287483 89.849991,119.013603 
	C86.096672,118.809525 82.336891,118.724350 78.287750,118.285789 
z"/>
<path fill="#DE57B3" opacity="1.000000" stroke="none" 
	d="
M70.139854,80.242081 
	C68.715607,81.405205 67.453812,82.946396 65.829651,83.644295 
	C63.289345,84.735855 60.503857,85.256828 57.363174,85.696846 
	C55.255451,84.911285 53.606789,84.448395 52.135807,83.695114 
	C55.798443,81.567802 59.283401,79.730881 63.165878,77.957703 
	C65.755547,78.761650 67.947701,79.501862 70.139854,80.242081 
z"/>
<path fill="#D743CB" opacity="1.000000" stroke="none" 
	d="
M53.951946,91.990585 
	C54.299484,95.373734 54.647022,98.756874 54.643524,102.557617 
	C52.446575,103.007484 50.600662,103.039749 48.516853,102.785500 
	C48.225410,98.667915 48.171867,94.836845 48.486790,91.052330 
	C50.554153,91.396118 52.253052,91.693352 53.951946,91.990585 
z"/>
<path fill="#3FECCF" opacity="1.000000" stroke="none" 
	d="
M91.002266,174.576263 
	C95.486763,174.259598 100.147209,174.218750 104.899452,174.569366 
	C98.864723,182.261719 98.864723,182.261719 91.002266,174.576263 
z"/>
<path fill="#BF54CC" opacity="1.000000" stroke="none" 
	d="
M125.863304,111.775024 
	C127.839752,110.596107 129.740601,109.254883 131.815979,108.288406 
	C133.550323,107.480759 135.488937,107.111702 137.755005,106.752945 
	C139.814133,107.647469 141.455322,108.337463 142.926025,109.330856 
	C139.572250,111.303169 136.388947,112.972092 133.000748,114.271790 
	C130.484985,113.193390 128.174149,112.484207 125.863304,111.775024 
z"/>
<path fill="#BE51CB" opacity="1.000000" stroke="none" 
	d="
M27.942757,111.561142 
	C30.162811,110.856445 32.480194,110.273994 34.832527,110.033844 
	C38.912766,109.617287 43.014626,109.412521 47.789963,109.262177 
	C49.251358,110.462189 50.030209,111.518951 50.809059,112.575714 
	C44.441536,113.025368 38.074013,113.475029 31.279676,113.987717 
	C29.920511,113.312988 28.988163,112.575226 27.942757,111.561142 
z"/>
<path fill="#F8CF4E" opacity="1.000000" stroke="none" 
	d="
M105.007103,17.632135 
	C100.649231,18.041695 96.132462,18.148457 91.225571,18.082470 
	C90.911697,17.765364 90.962044,17.597681 91.067947,17.479975 
	C98.076080,9.690317 98.076469,9.690665 105.007103,17.632135 
z"/>
<path fill="#D439C9" opacity="1.000000" stroke="none" 
	d="
M141.811249,101.938507 
	C142.116882,99.256134 142.422501,96.573753 143.077591,93.437119 
	C144.934036,92.656654 146.441010,92.330437 147.985046,92.416130 
	C147.914749,96.211060 147.807419,99.594070 147.319244,102.982956 
	C145.229340,102.638733 143.520294,102.288620 141.811249,101.938507 
z"/>
<path fill="#DB49BC" opacity="1.000000" stroke="none" 
	d="
M54.162033,91.734093 
	C52.253052,91.693352 50.554153,91.396118 48.500694,90.704453 
	C49.416794,88.201836 50.687462,86.093666 51.958130,83.985504 
	C53.606789,84.448395 55.255451,84.911285 56.982723,85.755882 
	C56.164928,87.917595 55.268524,89.697601 54.162033,91.734093 
z"/>
<path fill="#C94CCD" opacity="1.000000" stroke="none" 
	d="
M48.754753,103.072014 
	C50.600662,103.039749 52.446575,103.007484 54.756973,102.956207 
	C56.123199,104.047035 57.024940,105.156868 57.997116,106.570404 
	C56.575245,107.568497 55.082943,108.262886 52.926319,108.858383 
	C51.092915,106.863670 49.923832,104.967842 48.754753,103.072014 
z"/>
<path fill="#DB49BC" opacity="1.000000" stroke="none" 
	d="
M147.947998,92.004211 
	C146.441010,92.330437 144.934036,92.656654 143.032959,93.028679 
	C141.691772,91.318474 140.744690,89.562469 140.078918,87.414291 
	C142.034103,86.626068 143.707962,86.230034 145.614609,86.071564 
	C146.547577,88.207504 147.247787,90.105858 147.947998,92.004211 
z"/>
<path fill="#C94CCD" opacity="1.000000" stroke="none" 
	d="
M141.583130,102.158310 
	C143.520294,102.288620 145.229340,102.638733 147.241394,103.294495 
	C146.061783,105.409256 144.579147,107.218361 143.096512,109.027466 
	C141.455322,108.337463 139.814133,107.647469 138.095078,106.636124 
	C139.129807,105.002563 140.242401,103.690338 141.583130,102.158310 
z"/>
<path fill="#B55DCC" opacity="1.000000" stroke="none" 
	d="
M125.585167,111.924957 
	C128.174149,112.484207 130.484985,113.193390 132.740631,114.430725 
	C132.288559,115.641876 131.891678,116.324875 131.494797,117.007874 
	C128.707245,116.725227 125.919701,116.442589 122.874817,115.791557 
	C123.514000,114.307076 124.410515,113.190987 125.585167,111.924957 
z"/>
<path fill="#DF5ABB" opacity="1.000000" stroke="none" 
	d="
M145.381836,85.833992 
	C143.707962,86.230034 142.034103,86.626068 139.925568,87.105911 
	C138.468124,86.583214 137.445358,85.976700 136.217178,85.145920 
	C136.989014,83.800583 137.966248,82.679527 139.352753,81.257080 
	C141.635300,82.581795 143.508575,84.207893 145.381836,85.833992 
z"/>
<path fill="#E060A7" opacity="1.000000" stroke="none" 
	d="
M70.448837,80.152847 
	C67.947701,79.501862 65.755547,78.761650 63.369057,77.712364 
	C63.603043,76.935738 64.031357,76.468178 64.459679,76.000610 
	C67.195915,76.212158 69.932152,76.423706 72.925400,76.963394 
	C72.374214,78.215561 71.566017,79.139595 70.448837,80.152847 
z"/>
<path fill="#8892CD" opacity="1.000000" stroke="none" 
	d="
M71.625107,138.024918 
	C70.796852,138.454666 69.594734,138.799622 68.059212,138.997498 
	C68.900955,138.546997 70.076096,138.243561 71.625107,138.024918 
z"/>
<path fill="#C842CB" opacity="1.000000" stroke="none" 
	d="
M171.981537,107.706604 
	C164.712784,107.636467 157.630188,107.290787 150.186584,106.577644 
	C150.513794,104.733665 151.202057,103.257141 152.167862,102.110931 
	C154.394775,102.627785 156.340698,102.869888 158.294128,102.990486 
	C164.204529,103.355362 170.117813,103.673134 176.029984,104.009262 
	C174.742554,105.149857 173.455124,106.290459 171.981537,107.706604 
z"/>
<path fill="#CF3ACA" opacity="1.000000" stroke="none" 
	d="
M176.311142,103.883759 
	C170.117813,103.673134 164.204529,103.355362 158.294128,102.990486 
	C156.340698,102.869888 154.394775,102.627785 152.154724,101.808380 
	C151.954041,100.782722 152.044083,100.389923 152.134109,99.997124 
	C160.811523,100.295677 169.488953,100.594231 178.581329,100.946915 
	C178.194946,101.920113 177.393631,102.839180 176.311142,103.883759 
z"/>
<path fill="#FFFEFF" opacity="1.000000" stroke="none" 
	d="
M153.893951,126.310608 
	C154.471512,125.719643 154.905777,125.429596 155.579712,125.029144 
	C163.237473,125.208519 169.704041,131.157013 169.776108,138.228012 
	C169.816345,142.175797 167.557205,145.446457 163.842178,146.521408 
	C160.969803,147.352509 157.127350,147.791290 154.691757,146.526215 
	C150.264465,144.226608 147.453354,139.971909 146.951752,134.243271 
	C147.528961,133.082565 148.129440,132.325256 148.765274,131.278824 
	C150.450623,129.530304 152.100632,128.070923 153.893951,126.310608 
z"/>
<path fill="#FCF5FB" opacity="1.000000" stroke="none" 
	d="
M152.103943,99.570152 
	C152.044083,100.389923 151.954041,100.782722 151.877167,101.478073 
	C151.202057,103.257141 150.513794,104.733665 149.691620,106.541306 
	C148.421005,108.372108 147.284332,109.871788 146.023712,111.671021 
	C144.689911,112.775444 143.480026,113.580307 142.125580,114.662788 
	C138.692886,115.802017 135.404724,116.663620 131.805695,117.266548 
	C131.891678,116.324875 132.288559,115.641876 132.945541,114.799942 
	C136.388947,112.972092 139.572250,111.303169 142.926025,109.330856 
	C144.579147,107.218361 146.061783,105.409256 147.622253,103.288620 
	C147.807419,99.594070 147.914749,96.211060 147.985046,92.416130 
	C147.247787,90.105858 146.547577,88.207504 145.614609,86.071564 
	C143.508575,84.207893 141.635300,82.581795 139.405243,80.912552 
	C134.837936,79.613655 130.673538,78.155396 126.398666,77.182571 
	C124.055679,76.649391 121.526222,76.935616 118.671906,76.675102 
	C118.284294,76.203766 118.259933,75.913521 118.146881,75.412292 
	C123.057869,74.894600 128.011856,74.591736 133.414429,74.377853 
	C137.020828,75.897156 140.178635,77.327484 143.669266,78.852341 
	C145.477844,80.535446 146.953583,82.124031 148.698761,83.896141 
	C149.441879,85.262360 149.915573,86.445053 150.634857,87.828461 
	C151.264297,89.772690 151.648148,91.516212 152.126022,93.635147 
	C152.171280,95.721436 152.122528,97.432312 152.103943,99.570152 
z"/>
<path fill="#FCF4FB" opacity="1.000000" stroke="none" 
	d="
M64.300209,75.660362 
	C64.031357,76.468178 63.603043,76.935738 62.971542,77.648636 
	C59.283401,79.730881 55.798443,81.567802 52.135803,83.695114 
	C50.687462,86.093666 49.416794,88.201836 48.132225,90.657898 
	C48.171867,94.836845 48.225410,98.667915 48.516853,102.785500 
	C49.923832,104.967842 51.092915,106.863670 52.561432,108.900459 
	C56.593895,110.844109 60.326923,112.646790 64.459686,114.513374 
	C67.755035,114.730667 70.679482,114.693268 73.533142,115.124390 
	C74.806999,115.316841 75.938568,116.451050 77.068787,117.575554 
	C69.963074,117.288528 62.923275,116.583801 55.505337,115.767220 
	C53.862888,114.693993 52.598587,113.732620 51.071671,112.673477 
	C50.030209,111.518951 49.251358,110.462189 48.200706,109.209641 
	C47.280811,108.212067 46.632717,107.410278 45.880726,106.298782 
	C45.317520,104.511742 44.858215,103.034401 44.208206,101.279099 
	C43.984959,98.960136 43.952408,96.919159 43.880127,94.442429 
	C44.251999,92.270569 44.663601,90.534462 45.128204,88.421356 
	C45.750404,86.927444 46.319607,85.810516 46.956985,84.380707 
	C48.600338,82.357544 50.175507,80.647263 51.973167,78.728119 
	C55.189610,77.175110 58.138397,75.709045 61.208920,74.571648 
	C61.987019,74.283424 63.152996,75.042343 64.300209,75.660362 
z"/>
</svg>